<svg width="162" height="30" viewBox="0 0 162 30" fill="none" xmlns="http://www.w3.org/2000/svg">
<path d="M15 30V6H6C4.3125 6 2.89062 5.42187 1.73438 4.26562C0.578125 3.07812 0 1.65625 0 0H36C36 1.6875 35.4062 3.10938 34.2188 4.26562C33.0312 5.42187 31.625 6 30 6H21V30H15ZM48 30C46.3125 30 44.8906 29.4219 43.7344 28.2656C42.5781 27.0781 42 25.6562 42 24H78C78 25.6875 77.4062 27.1094 76.2188 28.2656C75.0312 29.4219 73.625 30 72 30H48ZM48 18C46.3125 18 44.8906 17.4219 43.7344 16.2656C42.5781 15.0781 42 13.6562 42 12H78C78 13.6875 77.4062 15.1094 76.2188 16.2656C75.0312 17.4219 73.625 18 72 18H48ZM48 6C46.3125 6 44.8906 5.42187 43.7344 4.26562C42.5781 3.07812 42 1.65625 42 0H78C78 1.6875 77.4062 3.10938 76.2188 4.26562C75.0312 5.42187 73.625 6 72 6H48ZM90 30C88.3125 30 86.8906 29.4219 85.7344 28.2656C84.5781 27.0781 84 25.6562 84 24V12H90V21C90 21.8438 90.2812 22.5625 90.8438 23.1562C91.4375 23.7188 92.1562 24 93 24H120C120 25.6875 119.406 27.1094 118.219 28.2656C117.031 29.4219 115.625 30 114 30H90ZM84 6V0H120C120 1.6875 119.406 3.10938 118.219 4.26562C117.031 5.42187 115.625 6 114 6H84ZM126 30V0H132V12H156C156 13.6875 155.406 15.1094 154.219 16.2656C153.031 17.4219 151.625 18 150 18H132V30H126ZM156 30V0H162V30H156Z" fill="white"/>
</svg>
